REM DIRINDEX 1\2,1\3,1\4,1\5,1\6
REM DIRNAME folder01,folder02,folder03,folder04,folder05,folder06
TITLE ""
FILE "DISC3Track15.mp3" MP3
  TRACK 01 AUDIO
    TITLE "0:"
    INDEX 01 00:00:00
  TRACK 02 AUDIO
    TITLE "3:cjc129_2461"
    INDEX 01 00:00:03
  TRACK 03 AUDIO
    TITLE "0:"
    INDEX 01 00:02:26
  TRACK 04 AUDIO
    TITLE "5:cjc129_2462"
    INDEX 01 00:02:59
  TRACK 05 AUDIO
    TITLE "0:"
    INDEX 01 00:04:60
  TRACK 06 AUDIO
    TITLE "4:cjc129_2463"
    INDEX 01 00:05:50
  TRACK 07 AUDIO
    TITLE "0:"
    INDEX 01 00:07:74
  TRACK 08 AUDIO
    TITLE "6:cjc129_2464"
    INDEX 01 00:08:30
  TRACK 09 AUDIO
    TITLE "0:"
    INDEX 01 00:13:43
  TRACK 10 AUDIO
    TITLE "3:cjc129_2465"
    INDEX 01 00:15:23
  TRACK 11 AUDIO
    TITLE "0:"
    INDEX 01 00:17:18
  TRACK 12 AUDIO
    TITLE "5:cjc129_2466"
    INDEX 01 00:17:49
  TRACK 13 AUDIO
    TITLE "0:"
    INDEX 01 00:21:74
  TRACK 14 AUDIO
    TITLE "4:cjc129_2467"
    INDEX 01 00:22:66
  TRACK 15 AUDIO
    TITLE "0:"
    INDEX 01 00:24:61
  TRACK 16 AUDIO
    TITLE "6:cjc129_2468"
    INDEX 01 00:25:17
  TRACK 17 AUDIO
    TITLE "0:"
    INDEX 01 00:29:62
  TRACK 18 AUDIO
    TITLE "3:cjc129_2469"
    INDEX 01 00:31:39
  TRACK 19 AUDIO
    TITLE "0:"
    INDEX 01 00:33:36
  TRACK 20 AUDIO
    TITLE "5:cjc129_2470"
    INDEX 01 00:33:66
  TRACK 21 AUDIO
    TITLE "0:"
    INDEX 01 00:36:15
  TRACK 22 AUDIO
    TITLE "4:cjc129_2471"
    INDEX 01 00:37:07
  TRACK 23 AUDIO
    TITLE "0:"
    INDEX 01 00:39:00
  TRACK 24 AUDIO
    TITLE "6:cjc129_2472"
    INDEX 01 00:39:33
  TRACK 25 AUDIO
    TITLE "0:"
    INDEX 01 00:43:42
  TRACK 26 AUDIO
    TITLE "3:cjc129_2473"
    INDEX 01 00:45:16
  TRACK 27 AUDIO
    TITLE "0:"
    INDEX 01 00:47:15
  TRACK 28 AUDIO
    TITLE "5:cjc129_2474"
    INDEX 01 00:47:46
  TRACK 29 AUDIO
    TITLE "0:"
    INDEX 01 00:51:60
  TRACK 30 AUDIO
    TITLE "4:cjc129_2475"
    INDEX 01 00:52:53
  TRACK 31 AUDIO
    TITLE "0:"
    INDEX 01 00:54:54
  TRACK 32 AUDIO
    TITLE "6:cjc129_2476"
    INDEX 01 00:55:08
  TRACK 33 AUDIO
    TITLE "0:"
    INDEX 01 00:59:12
  TRACK 34 AUDIO
    TITLE "3:cjc129_2477"
    INDEX 01 01:00:60
  TRACK 35 AUDIO
    TITLE "0:"
    INDEX 01 01:02:67
  TRACK 36 AUDIO
    TITLE "5:cjc129_2478"
    INDEX 01 01:03:24
  TRACK 37 AUDIO
    TITLE "0:"
    INDEX 01 01:13:06
  TRACK 38 AUDIO
    TITLE "4:cjc129_2479"
    INDEX 01 01:13:71
  TRACK 39 AUDIO
    TITLE "0:"
    INDEX 01 01:16:01
  TRACK 40 AUDIO
    TITLE "6:cjc129_2480"
    INDEX 01 01:16:32
  TRACK 41 AUDIO
    TITLE "0:"
    INDEX 01 01:21:27
  TRACK 42 AUDIO
    TITLE "3:cjc129_2481"
    INDEX 01 01:23:01
  TRACK 43 AUDIO
    TITLE "0:"
    INDEX 01 01:25:09
  TRACK 44 AUDIO
    TITLE "5:cjc129_2482"
    INDEX 01 01:25:39
  TRACK 45 AUDIO
    TITLE "0:"
    INDEX 01 01:35:71
  TRACK 46 AUDIO
    TITLE "4:cjc129_2483"
    INDEX 01 01:36:62
  TRACK 47 AUDIO
    TITLE "0:"
    INDEX 01 01:38:69
  TRACK 48 AUDIO
    TITLE "6:cjc129_2484"
    INDEX 01 01:39:25
  TRACK 49 AUDIO
    TITLE "0:"
    INDEX 01 01:43:56
  TRACK 50 AUDIO
    TITLE "3:cjc129_2485"
    INDEX 01 01:45:30
  TRACK 51 AUDIO
    TITLE "0:"
    INDEX 01 01:47:44
  TRACK 52 AUDIO
    TITLE "5:cjc129_2486"
    INDEX 01 01:48:01
  TRACK 53 AUDIO
    TITLE "0:"
    INDEX 01 01:50:56
  TRACK 54 AUDIO
    TITLE "4:cjc129_2487"
    INDEX 01 01:51:48
  TRACK 55 AUDIO
    TITLE "0:"
    INDEX 01 01:53:61
  TRACK 56 AUDIO
    TITLE "6:cjc129_2488"
    INDEX 01 01:54:17
  TRACK 57 AUDIO
    TITLE "0:"
    INDEX 01 01:59:14
  TRACK 58 AUDIO
    TITLE "2:cjc129_2489"
    INDEX 01 02:00:63
  TRACK 59 AUDIO
    TITLE "0:"
    INDEX 01 02:06:65
  TRACK 60 AUDIO
    TITLE "3:cjc129_2490"
    INDEX 01 02:08:03
  TRACK 61 AUDIO
    TITLE "0:"
    INDEX 01 02:13:26
  TRACK 62 AUDIO
    TITLE "5:cjc129_2491"
    INDEX 01 02:13:56
  TRACK 63 AUDIO
    TITLE "0:"
    INDEX 01 02:18:43
  TRACK 64 AUDIO
    TITLE "4:cjc129_2492"
    INDEX 01 02:19:35
  TRACK 65 AUDIO
    TITLE "0:"
    INDEX 01 02:24:59
  TRACK 66 AUDIO
    TITLE "6:cjc129_2493"
    INDEX 01 02:25:12
  TRACK 67 AUDIO
    TITLE "0:"
    INDEX 01 02:29:09
